<svg width="17" height="18" viewBox="0 0 17 18" fill="none" xmlns="http://www.w3.org/2000/svg">
<g id="solar:star-bold-duotone">
<path id="Vector" d="M13.0921 12.3766C12.124 12.6091 11.1132 12.5978 10.1505 12.3438C9.18774 12.0899 8.303 11.6011 7.57552 10.9212C6.84803 10.2414 6.3005 9.39176 5.98196 8.44839C5.66342 7.50503 5.58381 6.49739 5.75025 5.51571C5.72532 5.54057 5.69856 5.56354 5.67021 5.58442C5.47188 5.73529 5.22396 5.79125 4.72813 5.90317L4.27834 6.00517C2.53584 6.39971 1.66459 6.59663 1.45705 7.26317C1.25021 7.929 1.8438 8.62388 3.03167 10.0129L3.33909 10.372C3.67625 10.7666 3.84555 10.9642 3.92134 11.2079C3.99713 11.4523 3.97163 11.7158 3.92063 12.242L3.87388 12.7216C3.69467 14.5753 3.60471 15.5018 4.1473 15.9133C4.68988 16.3249 5.50588 15.9502 7.13646 15.1986L7.55934 15.0045C8.02259 14.7906 8.25421 14.6844 8.5 14.6844C8.74579 14.6844 8.97742 14.7906 9.44138 15.0045L9.86284 15.1986C11.4941 15.9495 12.3101 16.3249 12.852 15.914C13.3953 15.5018 13.3053 14.5753 13.1261 12.7216L13.0921 12.3766Z" fill="white"/>
<path id="Vector_2" opacity="0.5" d="M6.48338 4.33067L6.25104 4.74717C5.99604 5.20475 5.86854 5.43354 5.67021 5.58442C5.69854 5.56317 5.72522 5.54026 5.75025 5.51571C5.58376 6.49746 5.66337 7.50519 5.98194 8.44862C6.30052 9.39206 6.84812 10.2417 7.5757 10.9216C8.30327 11.6014 9.18811 12.0902 10.151 12.3442C11.1138 12.5981 12.1246 12.6092 13.0928 12.3766L13.0787 12.242C13.0284 11.7157 13.0029 11.4522 13.0787 11.2079C13.1545 10.9642 13.323 10.7666 13.6609 10.372L13.9683 10.0129C15.1562 8.62458 15.7498 7.92971 15.5423 7.26317C15.3354 6.59662 14.4642 6.399 12.7217 6.00517L12.2712 5.90317C11.776 5.79125 11.5281 5.73529 11.3291 5.58442C11.1308 5.43354 11.0033 5.20475 10.7483 4.74717L10.5166 4.33067C9.61917 2.72133 9.17079 1.91667 8.5 1.91667C7.82921 1.91667 7.38083 2.72133 6.48338 4.33067Z" fill="#D3D3D3"/>
</g>
</svg>
